<?xml version="1.0" encoding="UTF-8"?>
<svg width="24px" height="24px" viewBox="0 0 24 24" version="1.1" xmlns="http://www.w3.org/2000/svg">
    <g stroke="none" stroke-width="1" fill="none" fill-rule="evenodd">
        <path d="M12,3 C14.717,3 15.056,3.012 16.122,3.06 C17.187,3.109 17.912,3.278 18.55,3.525 C19.21,3.779 19.766,4.123 20.322,4.678 C20.8305,5.1779 21.224,5.78259 21.475,6.45 C21.722,7.087 21.891,7.813 21.94,8.878 C21.988,9.944 22,10.283 22,13 C22,15.717 21.988,16.056 21.94,17.122 C21.891,18.187 21.722,18.912 21.475,19.55 C21.2247,20.2178 20.8311,20.8226 20.322,21.322 C19.822,21.8303 19.2173,22.2238 18.55,22.475 C17.913,22.722 17.187,22.891 16.122,22.94 C15.056,22.988 14.717,23 12,23 C9.283,23 8.944,22.988 7.878,22.94 C6.813,22.891 6.088,22.722 5.45,22.475 C4.78233,22.2245 4.17753,21.8309 3.678,21.322 C3.16941,20.8222 2.77593,20.2175 2.525,19.55 C2.278,18.913 2.109,18.187 2.06,17.122 C2.012,16.056 2,15.717 2,13 C2,10.283 2.012,9.944 2.06,8.878 C2.109,7.812 2.278,7.088 2.525,6.45 C2.77524,5.78218 3.1688,5.17732 3.678,4.678 C4.17767,4.16923 4.78243,3.77573 5.45,3.525 C6.088,3.278 6.812,3.109 7.878,3.06 C8.944,3.012 9.283,3 12,3 Z M12,7 C9.23858,7 7,9.23858 7,12 C7,14.7614 9.23858,17 12,17 C14.7614,17 17,14.7614 17,12 C17,9.23858 14.7614,7 12,7 Z M18.5,6.75 C18.5,6.05964 17.9404,5.5 17.25,5.5 C16.5596,5.5 16,6.05964 16,6.75 C16,7.44036 16.5596,8 17.25,8 C17.9404,8 18.5,7.44036 18.5,6.75 Z M12,9 C13.6569,9 15,10.3431 15,12 C15,13.6569 13.6569,15 12,15 C10.3431,15 9,13.6569 9,12 C9,10.3431 10.3431,9 12,9 Z" fill="#23374f"></path>
    </g>
</svg>
