<?xml version="1.0" encoding="UTF-8"?>
<svg width="24px" height="24px" viewBox="0 0 24 24" version="1.1" xmlns="http://www.w3.org/2000/svg">
    <g stroke="none" stroke-width="1" fill="none" fill-rule="evenodd">
        <path d="M19,3 C20.1046,3 21,3.89543 21,5 L21,19 C21,20.1046 20.1046,21 19,21 L5,21 C3.89543,21 3,20.1046 3,19 L3,5 C3,3.89543 3.89543,3 5,3 L19,3 Z M18.5,18.5 L18.5,13.2998 C18.5,11.6198 17.9399,10.4 16.2199,10.4 C15.4099,10.4 14.8098,10.8399 14.5499,11.2598 L14.5499,10.5498 L12.7498,10.5498 L12.7498,18.5 L14.5499,18.5 L14.5499,13.5898 C14.5499,12.8898 14.9999,12.1997 15.8999,12.1997 C16.7999,12.1997 16.7998,13.0098 16.7998,13.5898 L16.7998,18.5 L18.5,18.5 Z M6.75,18.5 L8.55011,18.5 L8.55011,10.5498 L6.75,10.5498 L6.75,18.5 Z M7.65011,6.39978 C6.99011,6.39978 6.45,6.93989 6.45,7.59989 C6.45,8.25989 6.99011,8.8 7.65011,8.8 C8.31011,8.8 8.85,8.25989 8.85,7.59989 C8.85,6.93989 8.31011,6.39978 7.65011,6.39978 Z" fill="#23374f"></path>
    </g>
</svg>
